<?xml version="1.0" encoding="utf-8"?>
<!-- Generator: Adobe Illustrator 18.0.0, SVG Export Plug-In . SVG Version: 6.00 Build 0)  -->
<!DOCTYPE svg PUBLIC "-//W3C//DTD SVG 1.1//EN" "http://www.w3.org/Graphics/SVG/1.1/DTD/svg11.dtd">
<svg version="1.1" id="Layer_1" fill="rgb(105 114 128)"
	xmlns="http://www.w3.org/2000/svg"
	xmlns:xlink="http://www.w3.org/1999/xlink" x="0px" y="0px" viewBox="0 0 24 24" enable-background="new 0 0 24 24" xml:space="preserve">
<path d="M20.5,5.2l-1.4-1.7C18.9,3.2,18.5,3,18,3H6C5.5,3,5.1,3.2,4.8,3.5L3.5,5.2C3.2,5.6,3,6,3,6.5V19
	c0,1.1,0.9,2,2,2h14c1.1,0,2-0.9,2-2V6.5C21,6,20.8,5.6,20.5,5.2z M12,17.5L6.5,12H10v-2h4v2h3.5L12,17.5z M5.1,5l0.8-1h12l0.9,1
	H5.1z"/>
</svg>
