<?xml version="1.0" encoding="utf-8"?>
<!-- Generator: Adobe Illustrator 18.0.0, SVG Export Plug-In . SVG Version: 6.00 Build 0)  -->
<!DOCTYPE svg PUBLIC "-//W3C//DTD SVG 1.1//EN" "http://www.w3.org/Graphics/SVG/1.1/DTD/svg11.dtd">
<svg version="1.1" xmlns="http://www.w3.org/2000/svg" xmlns:xlink="http://www.w3.org/1999/xlink" x="0px" y="0px"
	 viewBox="0 0 48 48" enable-background="new 0 0 48 48" xml:space="preserve">
<g id="Layer_1">
	<circle fill="#7E7E7E" cx="24" cy="24" r="24"/>
</g>
<g id="Layer_2">
	<path fill="#FFFFFF" d="M19.3,35.9c-0.6,0-1.1-0.2-1.5-0.6c-0.4-0.4-0.6-0.9-0.6-1.5c0-0.6,0.2-1.1,0.6-1.5
		c0.4-0.4,0.9-0.6,1.5-0.6c0.6,0,1.1,0.2,1.5,0.6c0.4,0.4,0.6,0.9,0.6,1.5c0,0.6-0.2,1.1-0.6,1.5C20.4,35.7,19.9,35.9,19.3,35.9z
		 M31.3,35.9c-0.6,0-1.1-0.2-1.5-0.6c-0.4-0.4-0.6-0.9-0.6-1.5c0-0.6,0.2-1.1,0.6-1.5c0.4-0.4,0.9-0.6,1.5-0.6
		c0.6,0,1.1,0.2,1.5,0.6c0.4,0.4,0.6,0.9,0.6,1.5c0,0.6-0.2,1.1-0.6,1.5C32.4,35.7,31.9,35.9,31.3,35.9z M17.8,16.2l3.3,6.8h8.6
		l3.7-6.8H17.8z M16.9,14.4h17.6c0.5,0,0.8,0.2,1,0.6s0.2,0.8,0,1.3l-4,7.3c-0.2,0.4-0.5,0.7-0.9,0.9c-0.3,0.2-0.7,0.3-1.2,0.3h-9.1
		l-1.7,3.1h14.7v1.8H19c-0.8,0-1.4-0.3-1.8-0.8c-0.4-0.6-0.4-1.2,0-1.9l1.9-3.5l-4.5-9.6h-2.3v-1.8h3.5L16.9,14.4z M21.1,23h8.6
		H21.1z"/>
</g>
</svg>
