<?xml version="1.0" encoding="utf-8"?>
<!-- Generator: Adobe Illustrator 18.0.0, SVG Export Plug-In . SVG Version: 6.00 Build 0)  -->
<!DOCTYPE svg PUBLIC "-//W3C//DTD SVG 1.1//EN" "http://www.w3.org/Graphics/SVG/1.1/DTD/svg11.dtd">
<svg version="1.1" xmlns="http://www.w3.org/2000/svg" xmlns:xlink="http://www.w3.org/1999/xlink" x="0px" y="0px"
	 viewBox="0 0 48 48" enable-background="new 0 0 48 48" xml:space="preserve">
<g id="Layer_1">
	<g>
		<circle fill="#FFFFFF" cx="24" cy="24" r="24"/>
	</g>
	<g>
		<circle fill="#7E7E7E" cx="24" cy="24" r="24"/>
	</g>
</g>
<g id="Layer_2">
	<path fill="#FFFFFF" d="M19.8,37.4v-4.7h-2.6c-0.6,0-1.2-0.2-1.6-0.7c-0.4-0.4-0.7-1-0.7-1.6v-4.1h-1.5c-0.5,0-0.9-0.2-1.1-0.7
		c-0.2-0.5-0.2-1,0-1.5l2.6-4.6c0.6-2.6,1.9-4.7,3.8-6.4s4.2-2.6,6.7-2.6c2.9,0,5.4,1,7.4,3s3,4.5,3,7.4c0,2.1-0.6,4-1.8,5.6
		c-1.2,1.7-2.8,2.9-4.7,3.9v6.9H19.8z M24.3,26.5h2.2l0.1-1.6c0.3,0,0.6-0.2,0.8-0.3c0.3-0.2,0.5-0.3,0.7-0.5l1.6,0.5l1-1.8
		l-1.1-0.9c0.1-0.3,0.2-0.7,0.2-1.1c0-0.4-0.1-0.7-0.2-1.1l1.1-0.9l-1-1.8l-1.6,0.5c-0.2-0.2-0.4-0.4-0.7-0.5
		c-0.3-0.1-0.5-0.3-0.8-0.3L26.5,15h-2.2l-0.1,1.6c-0.3,0.1-0.5,0.2-0.8,0.3c-0.3,0.1-0.5,0.3-0.7,0.5l-1.6-0.5l-1,1.8l1.1,0.9
		C21,20,21,20.3,21,20.7c0,0.4,0.1,0.7,0.2,1.1L20,22.7l1,1.8l1.6-0.5c0.2,0.2,0.4,0.4,0.7,0.5c0.3,0.2,0.5,0.3,0.8,0.3L24.3,26.5z
		 M25.4,23.3c-0.7,0-1.3-0.3-1.8-0.8c-0.5-0.5-0.8-1.1-0.8-1.8c0-0.7,0.3-1.3,0.8-1.8c0.5-0.5,1.1-0.8,1.8-0.8
		c0.7,0,1.3,0.3,1.8,0.8c0.5,0.5,0.8,1.1,0.8,1.8c0,0.7-0.3,1.3-0.8,1.8C26.7,23.1,26.1,23.3,25.4,23.3z M22,35.2h5.1V29l1-0.5
		c1.6-0.7,2.9-1.7,3.9-3c1-1.3,1.6-2.8,1.6-4.5c0-2.3-0.8-4.2-2.4-5.8c-1.6-1.6-3.5-2.4-5.8-2.4c-2.1,0-4,0.7-5.6,2
		s-2.4,3.1-2.6,5.1L15,24.1h2.2v6.4H22V35.2z"/>
</g>
</svg>
